<mxfile host="app.diagrams.net" agent="Mozilla/5.0 (Macintosh; Intel Mac OS X 10_15_7) AppleWebKit/537.36 (KHTML, like Gecko) Chrome/128.0.0.0 Safari/537.36" version="24.7.14">
  <diagram id="C5RBs43oDa-KdzZeNtuy" name="Prototype">
    <mxGraphModel dx="2947" dy="1344" grid="1" gridSize="10" guides="1" tooltips="1" connect="1" arrows="1" fold="1" page="1" pageScale="1" pageWidth="827" pageHeight="1169" math="0" shadow="0">
      <root>
        <mxCell id="WIyWlLk6GJQsqaUBKTNV-0" />
        <mxCell id="WIyWlLk6GJQsqaUBKTNV-1" parent="WIyWlLk6GJQsqaUBKTNV-0" />
        <mxCell id="bG1zU9R9dDIdzRkVZDXt-0" value="&lt;h1 style=&quot;margin-top: 0px;&quot;&gt;Prototype&lt;/h1&gt;&lt;h1 style=&quot;margin-top: 0px;&quot;&gt;&lt;font style=&quot;font-size: 20px;&quot;&gt;Orders Transaction System&lt;/font&gt;&lt;/h1&gt;" style="text;html=1;whiteSpace=wrap;overflow=hidden;rounded=0;labelBackgroundColor=none;fontColor=#000000;sketch=1;curveFitting=1;jiggle=2;" vertex="1" parent="WIyWlLk6GJQsqaUBKTNV-1">
          <mxGeometry width="180" height="140" as="geometry" />
        </mxCell>
        <mxCell id="bG1zU9R9dDIdzRkVZDXt-4" style="edgeStyle=orthogonalEdgeStyle;rounded=0;sketch=1;hachureGap=4;jiggle=2;curveFitting=1;orthogonalLoop=1;jettySize=auto;html=1;entryX=0.5;entryY=0;entryDx=0;entryDy=0;strokeColor=#FF6392;fontFamily=Architects Daughter;fontSource=https%3A%2F%2Ffonts.googleapis.com%2Fcss%3Ffamily%3DArchitects%2BDaughter;fontColor=#5AA9E6;fillColor=#FFE45E;" edge="1" parent="WIyWlLk6GJQsqaUBKTNV-1" source="bG1zU9R9dDIdzRkVZDXt-1">
          <mxGeometry relative="1" as="geometry">
            <mxPoint x="160" y="210" as="targetPoint" />
          </mxGeometry>
        </mxCell>
        <mxCell id="bG1zU9R9dDIdzRkVZDXt-5" style="edgeStyle=orthogonalEdgeStyle;rounded=0;sketch=1;hachureGap=4;jiggle=2;curveFitting=1;orthogonalLoop=1;jettySize=auto;html=1;exitX=1;exitY=0.5;exitDx=0;exitDy=0;exitPerimeter=0;entryX=0;entryY=0.5;entryDx=0;entryDy=0;strokeColor=#FF6392;fontFamily=Architects Daughter;fontSource=https%3A%2F%2Ffonts.googleapis.com%2Fcss%3Ffamily%3DArchitects%2BDaughter;fontColor=#5AA9E6;fillColor=#FFE45E;" edge="1" parent="WIyWlLk6GJQsqaUBKTNV-1" target="bG1zU9R9dDIdzRkVZDXt-3">
          <mxGeometry relative="1" as="geometry">
            <mxPoint x="70" y="240" as="sourcePoint" />
          </mxGeometry>
        </mxCell>
        <mxCell id="bG1zU9R9dDIdzRkVZDXt-44" style="rounded=0;sketch=1;hachureGap=4;jiggle=2;curveFitting=1;orthogonalLoop=1;jettySize=auto;html=1;exitX=0.5;exitY=1;exitDx=0;exitDy=0;entryX=0.5;entryY=0;entryDx=0;entryDy=0;strokeColor=#FF6392;fontFamily=Architects Daughter;fontSource=https%3A%2F%2Ffonts.googleapis.com%2Fcss%3Ffamily%3DArchitects%2BDaughter;fontColor=#5AA9E6;fillColor=#FFE45E;" edge="1" parent="WIyWlLk6GJQsqaUBKTNV-1" source="bG1zU9R9dDIdzRkVZDXt-8" target="bG1zU9R9dDIdzRkVZDXt-41">
          <mxGeometry relative="1" as="geometry" />
        </mxCell>
        <mxCell id="bG1zU9R9dDIdzRkVZDXt-8" value="Home" style="ellipse;whiteSpace=wrap;html=1;aspect=fixed;sketch=1;hachureGap=4;jiggle=2;curveFitting=1;strokeColor=#FF6392;fontFamily=Architects Daughter;fontSource=https%3A%2F%2Ffonts.googleapis.com%2Fcss%3Ffamily%3DArchitects%2BDaughter;fontColor=#5AA9E6;fillColor=#FFE45E;" vertex="1" parent="WIyWlLk6GJQsqaUBKTNV-1">
          <mxGeometry x="196" y="150" width="60" height="60" as="geometry" />
        </mxCell>
        <mxCell id="bG1zU9R9dDIdzRkVZDXt-60" style="edgeStyle=orthogonalEdgeStyle;rounded=0;sketch=1;hachureGap=4;jiggle=2;curveFitting=1;orthogonalLoop=1;jettySize=auto;html=1;entryX=1;entryY=0.5;entryDx=0;entryDy=0;strokeColor=#FF6392;fontFamily=Architects Daughter;fontSource=https%3A%2F%2Ffonts.googleapis.com%2Fcss%3Ffamily%3DArchitects%2BDaughter;fontColor=#5AA9E6;fillColor=#FFE45E;" edge="1" parent="WIyWlLk6GJQsqaUBKTNV-1" source="bG1zU9R9dDIdzRkVZDXt-10" target="bG1zU9R9dDIdzRkVZDXt-41">
          <mxGeometry relative="1" as="geometry" />
        </mxCell>
        <mxCell id="bG1zU9R9dDIdzRkVZDXt-10" value="Categories" style="shape=cylinder3;whiteSpace=wrap;html=1;boundedLbl=1;backgroundOutline=1;size=15;sketch=1;hachureGap=4;jiggle=2;curveFitting=1;strokeColor=#FF6392;fontFamily=Architects Daughter;fontSource=https%3A%2F%2Ffonts.googleapis.com%2Fcss%3Ffamily%3DArchitects%2BDaughter;fontColor=#5AA9E6;fillColor=#FFE45E;" vertex="1" parent="WIyWlLk6GJQsqaUBKTNV-1">
          <mxGeometry x="516" y="272.5" width="70" height="100" as="geometry" />
        </mxCell>
        <mxCell id="bG1zU9R9dDIdzRkVZDXt-61" style="edgeStyle=orthogonalEdgeStyle;rounded=0;sketch=1;hachureGap=4;jiggle=2;curveFitting=1;orthogonalLoop=1;jettySize=auto;html=1;entryX=1;entryY=0.5;entryDx=0;entryDy=0;strokeColor=#FF6392;fontFamily=Architects Daughter;fontSource=https%3A%2F%2Ffonts.googleapis.com%2Fcss%3Ffamily%3DArchitects%2BDaughter;fontColor=#5AA9E6;fillColor=#FFE45E;" edge="1" parent="WIyWlLk6GJQsqaUBKTNV-1" source="bG1zU9R9dDIdzRkVZDXt-15" target="bG1zU9R9dDIdzRkVZDXt-49">
          <mxGeometry relative="1" as="geometry" />
        </mxCell>
        <mxCell id="bG1zU9R9dDIdzRkVZDXt-15" value="Products" style="shape=cylinder3;whiteSpace=wrap;html=1;boundedLbl=1;backgroundOutline=1;size=15;sketch=1;hachureGap=4;jiggle=2;curveFitting=1;strokeColor=#FF6392;fontFamily=Architects Daughter;fontSource=https%3A%2F%2Ffonts.googleapis.com%2Fcss%3Ffamily%3DArchitects%2BDaughter;fontColor=#5AA9E6;fillColor=#FFE45E;" vertex="1" parent="WIyWlLk6GJQsqaUBKTNV-1">
          <mxGeometry x="516" y="422.5" width="70" height="100" as="geometry" />
        </mxCell>
        <mxCell id="bG1zU9R9dDIdzRkVZDXt-20" value="Flag: for Products&#xa;1 -&gt; Active&#xa;2 -&gt; Favorite&#xa;3 -&gt; Disabled&#xa;4 -&gt; Deleted" style="text;whiteSpace=wrap;overflow=hidden;rounded=0;fontFamily=Architects Daughter;fontSource=https%3A%2F%2Ffonts.googleapis.com%2Fcss%3Ffamily%3DArchitects%2BDaughter;fontColor=#5AA9E6;spacing=1;verticalAlign=top;fontSize=10;" vertex="1" parent="WIyWlLk6GJQsqaUBKTNV-1">
          <mxGeometry x="180" width="90" height="60" as="geometry" />
        </mxCell>
        <mxCell id="bG1zU9R9dDIdzRkVZDXt-21" value="Flag: for Order&#xa;1 -&gt; Active&#xa;2 -&gt; Paid&#xa;3 -&gt; Verified&#xa;4 -&gt; Processing&#xa;5 =&gt; Delivery&#xa;6 -&gt; Done&#xa;&#xa;" style="text;whiteSpace=wrap;overflow=hidden;rounded=0;fontFamily=Architects Daughter;fontSource=https%3A%2F%2Ffonts.googleapis.com%2Fcss%3Ffamily%3DArchitects%2BDaughter;fontColor=#5AA9E6;spacing=1;verticalAlign=top;fontSize=10;" vertex="1" parent="WIyWlLk6GJQsqaUBKTNV-1">
          <mxGeometry x="300" width="180" height="90" as="geometry" />
        </mxCell>
        <mxCell id="bG1zU9R9dDIdzRkVZDXt-29" value="" style="strokeWidth=2;html=1;shape=mxgraph.flowchart.annotation_2;align=left;labelPosition=right;pointerEvents=1;sketch=1;hachureGap=4;jiggle=2;curveFitting=1;strokeColor=#FF6392;fontFamily=Architects Daughter;fontSource=https%3A%2F%2Ffonts.googleapis.com%2Fcss%3Ffamily%3DArchitects%2BDaughter;fontColor=#5AA9E6;fillColor=#FFE45E;" vertex="1" parent="WIyWlLk6GJQsqaUBKTNV-1">
          <mxGeometry x="256" y="160" width="50" height="40" as="geometry" />
        </mxCell>
        <mxCell id="bG1zU9R9dDIdzRkVZDXt-30" value="PATH =&gt; http://titaniumprinting.com/" style="text;whiteSpace=wrap;overflow=hidden;rounded=0;fontFamily=Architects Daughter;fontSource=https%3A%2F%2Ffonts.googleapis.com%2Fcss%3Ffamily%3DArchitects%2BDaughter;fontColor=#5AA9E6;spacing=1;verticalAlign=middle;fontSize=10;" vertex="1" parent="WIyWlLk6GJQsqaUBKTNV-1">
          <mxGeometry x="286" y="160" width="180" height="40" as="geometry" />
        </mxCell>
        <mxCell id="bG1zU9R9dDIdzRkVZDXt-35" value="" style="group" vertex="1" connectable="0" parent="WIyWlLk6GJQsqaUBKTNV-1">
          <mxGeometry x="586" y="302.5" width="210" height="40" as="geometry" />
        </mxCell>
        <mxCell id="bG1zU9R9dDIdzRkVZDXt-18" value="" style="strokeWidth=2;html=1;shape=mxgraph.flowchart.annotation_2;align=left;labelPosition=right;pointerEvents=1;sketch=1;hachureGap=4;jiggle=2;curveFitting=1;strokeColor=#FF6392;fontFamily=Architects Daughter;fontSource=https%3A%2F%2Ffonts.googleapis.com%2Fcss%3Ffamily%3DArchitects%2BDaughter;fontColor=#5AA9E6;fillColor=#FFE45E;" vertex="1" parent="bG1zU9R9dDIdzRkVZDXt-35">
          <mxGeometry width="50" height="40" as="geometry" />
        </mxCell>
        <mxCell id="bG1zU9R9dDIdzRkVZDXt-19" value="select id, name, slug, ...categories&#xa;where slug = 1" style="text;whiteSpace=wrap;overflow=hidden;rounded=0;fontFamily=Architects Daughter;fontSource=https%3A%2F%2Ffonts.googleapis.com%2Fcss%3Ffamily%3DArchitects%2BDaughter;fontColor=#5AA9E6;spacing=1;verticalAlign=middle;fontSize=10;" vertex="1" parent="bG1zU9R9dDIdzRkVZDXt-35">
          <mxGeometry x="30" width="180" height="40" as="geometry" />
        </mxCell>
        <mxCell id="bG1zU9R9dDIdzRkVZDXt-37" value="" style="group" vertex="1" connectable="0" parent="WIyWlLk6GJQsqaUBKTNV-1">
          <mxGeometry x="586" y="452.5" width="210" height="40" as="geometry" />
        </mxCell>
        <mxCell id="bG1zU9R9dDIdzRkVZDXt-23" value="" style="strokeWidth=2;html=1;shape=mxgraph.flowchart.annotation_2;align=left;labelPosition=right;pointerEvents=1;sketch=1;hachureGap=4;jiggle=2;curveFitting=1;strokeColor=#FF6392;fontFamily=Architects Daughter;fontSource=https%3A%2F%2Ffonts.googleapis.com%2Fcss%3Ffamily%3DArchitects%2BDaughter;fontColor=#5AA9E6;fillColor=#FFE45E;" vertex="1" parent="bG1zU9R9dDIdzRkVZDXt-37">
          <mxGeometry width="50" height="40" as="geometry" />
        </mxCell>
        <mxCell id="bG1zU9R9dDIdzRkVZDXt-24" value="select id, name, slug, ...products&#xa;where slug = 2 (Favorite)" style="text;whiteSpace=wrap;overflow=hidden;rounded=0;fontFamily=Architects Daughter;fontSource=https%3A%2F%2Ffonts.googleapis.com%2Fcss%3Ffamily%3DArchitects%2BDaughter;fontColor=#5AA9E6;spacing=1;verticalAlign=middle;fontSize=10;" vertex="1" parent="bG1zU9R9dDIdzRkVZDXt-37">
          <mxGeometry x="30" width="180" height="40" as="geometry" />
        </mxCell>
        <mxCell id="bG1zU9R9dDIdzRkVZDXt-48" value="" style="group" vertex="1" connectable="0" parent="WIyWlLk6GJQsqaUBKTNV-1">
          <mxGeometry y="420" width="450" height="105" as="geometry" />
        </mxCell>
        <mxCell id="bG1zU9R9dDIdzRkVZDXt-68" value="" style="group" vertex="1" connectable="0" parent="bG1zU9R9dDIdzRkVZDXt-48">
          <mxGeometry width="450" height="105" as="geometry" />
        </mxCell>
        <mxCell id="bG1zU9R9dDIdzRkVZDXt-49" value="" style="rounded=1;whiteSpace=wrap;html=1;sketch=1;hachureGap=4;jiggle=2;curveFitting=1;strokeColor=#FF6392;fontFamily=Architects Daughter;fontSource=https%3A%2F%2Ffonts.googleapis.com%2Fcss%3Ffamily%3DArchitects%2BDaughter;fontColor=#5AA9E6;fillColor=none;container=0;" vertex="1" parent="bG1zU9R9dDIdzRkVZDXt-68">
          <mxGeometry width="450" height="105" as="geometry" />
        </mxCell>
        <mxCell id="bG1zU9R9dDIdzRkVZDXt-50" value="name_product" style="rounded=1;whiteSpace=wrap;html=1;sketch=1;hachureGap=4;jiggle=2;curveFitting=1;strokeColor=#FF6392;fontFamily=Architects Daughter;fontSource=https%3A%2F%2Ffonts.googleapis.com%2Fcss%3Ffamily%3DArchitects%2BDaughter;fontColor=#5AA9E6;fillColor=#FFE45E;container=0;" vertex="1" parent="bG1zU9R9dDIdzRkVZDXt-68">
          <mxGeometry x="15" y="60" width="130" height="30" as="geometry" />
        </mxCell>
        <mxCell id="bG1zU9R9dDIdzRkVZDXt-51" value="name_product" style="rounded=1;whiteSpace=wrap;html=1;sketch=1;hachureGap=4;jiggle=2;curveFitting=1;strokeColor=#FF6392;fontFamily=Architects Daughter;fontSource=https%3A%2F%2Ffonts.googleapis.com%2Fcss%3Ffamily%3DArchitects%2BDaughter;fontColor=#5AA9E6;fillColor=#FFE45E;container=0;" vertex="1" parent="bG1zU9R9dDIdzRkVZDXt-68">
          <mxGeometry x="160" y="60" width="130" height="30" as="geometry" />
        </mxCell>
        <mxCell id="bG1zU9R9dDIdzRkVZDXt-52" value="name_product" style="rounded=1;whiteSpace=wrap;html=1;sketch=1;hachureGap=4;jiggle=2;curveFitting=1;strokeColor=#FF6392;fontFamily=Architects Daughter;fontSource=https%3A%2F%2Ffonts.googleapis.com%2Fcss%3Ffamily%3DArchitects%2BDaughter;fontColor=#5AA9E6;fillColor=#FFE45E;container=0;" vertex="1" parent="bG1zU9R9dDIdzRkVZDXt-68">
          <mxGeometry x="305" y="60" width="130" height="30" as="geometry" />
        </mxCell>
        <mxCell id="bG1zU9R9dDIdzRkVZDXt-113" style="edgeStyle=orthogonalEdgeStyle;rounded=0;sketch=1;hachureGap=4;jiggle=2;curveFitting=1;orthogonalLoop=1;jettySize=auto;html=1;entryX=0.5;entryY=0;entryDx=0;entryDy=0;strokeColor=#FF6392;fontFamily=Architects Daughter;fontSource=https%3A%2F%2Ffonts.googleapis.com%2Fcss%3Ffamily%3DArchitects%2BDaughter;fontColor=#5AA9E6;fillColor=#FFE45E;" edge="1" parent="bG1zU9R9dDIdzRkVZDXt-68" source="bG1zU9R9dDIdzRkVZDXt-53" target="bG1zU9R9dDIdzRkVZDXt-51">
          <mxGeometry relative="1" as="geometry" />
        </mxCell>
        <mxCell id="bG1zU9R9dDIdzRkVZDXt-114" style="edgeStyle=orthogonalEdgeStyle;rounded=0;sketch=1;hachureGap=4;jiggle=2;curveFitting=1;orthogonalLoop=1;jettySize=auto;html=1;exitX=0;exitY=0.5;exitDx=0;exitDy=0;entryX=0.5;entryY=0;entryDx=0;entryDy=0;strokeColor=#FF6392;fontFamily=Architects Daughter;fontSource=https%3A%2F%2Ffonts.googleapis.com%2Fcss%3Ffamily%3DArchitects%2BDaughter;fontColor=#5AA9E6;fillColor=#FFE45E;" edge="1" parent="bG1zU9R9dDIdzRkVZDXt-68" source="bG1zU9R9dDIdzRkVZDXt-53" target="bG1zU9R9dDIdzRkVZDXt-50">
          <mxGeometry relative="1" as="geometry" />
        </mxCell>
        <mxCell id="bG1zU9R9dDIdzRkVZDXt-115" style="edgeStyle=orthogonalEdgeStyle;rounded=0;sketch=1;hachureGap=4;jiggle=2;curveFitting=1;orthogonalLoop=1;jettySize=auto;html=1;exitX=1;exitY=0.5;exitDx=0;exitDy=0;entryX=0.5;entryY=0;entryDx=0;entryDy=0;strokeColor=#FF6392;fontFamily=Architects Daughter;fontSource=https%3A%2F%2Ffonts.googleapis.com%2Fcss%3Ffamily%3DArchitects%2BDaughter;fontColor=#5AA9E6;fillColor=#FFE45E;" edge="1" parent="bG1zU9R9dDIdzRkVZDXt-68" source="bG1zU9R9dDIdzRkVZDXt-53" target="bG1zU9R9dDIdzRkVZDXt-52">
          <mxGeometry relative="1" as="geometry" />
        </mxCell>
        <mxCell id="bG1zU9R9dDIdzRkVZDXt-53" value="[GET] Products&lt;span style=&quot;background-color: initial;&quot;&gt;&amp;nbsp;[]&lt;/span&gt;" style="rounded=1;whiteSpace=wrap;html=1;sketch=1;hachureGap=4;jiggle=2;curveFitting=1;strokeColor=#FF6392;fontFamily=Architects Daughter;fontSource=https%3A%2F%2Ffonts.googleapis.com%2Fcss%3Ffamily%3DArchitects%2BDaughter;fontColor=#5AA9E6;fillColor=#FFE45E;container=0;" vertex="1" parent="bG1zU9R9dDIdzRkVZDXt-68">
          <mxGeometry x="128" y="10" width="194" height="30" as="geometry" />
        </mxCell>
        <mxCell id="bG1zU9R9dDIdzRkVZDXt-56" style="edgeStyle=orthogonalEdgeStyle;rounded=0;sketch=1;hachureGap=4;jiggle=2;curveFitting=1;orthogonalLoop=1;jettySize=auto;html=1;entryX=0.5;entryY=0;entryDx=0;entryDy=0;strokeColor=#FF6392;fontFamily=Architects Daughter;fontSource=https%3A%2F%2Ffonts.googleapis.com%2Fcss%3Ffamily%3DArchitects%2BDaughter;fontColor=#5AA9E6;fillColor=#FFE45E;" edge="1" parent="WIyWlLk6GJQsqaUBKTNV-1" source="bG1zU9R9dDIdzRkVZDXt-41" target="bG1zU9R9dDIdzRkVZDXt-49">
          <mxGeometry relative="1" as="geometry" />
        </mxCell>
        <mxCell id="bG1zU9R9dDIdzRkVZDXt-59" value="" style="group" vertex="1" connectable="0" parent="WIyWlLk6GJQsqaUBKTNV-1">
          <mxGeometry x="196" y="560" width="380" height="60" as="geometry" />
        </mxCell>
        <mxCell id="bG1zU9R9dDIdzRkVZDXt-27" value="" style="ellipse;whiteSpace=wrap;html=1;aspect=fixed;sketch=1;hachureGap=4;jiggle=2;curveFitting=1;strokeColor=#FF6392;fontFamily=Architects Daughter;fontSource=https%3A%2F%2Ffonts.googleapis.com%2Fcss%3Ffamily%3DArchitects%2BDaughter;fontColor=#5AA9E6;fillColor=#FFE45E;" vertex="1" parent="bG1zU9R9dDIdzRkVZDXt-59">
          <mxGeometry width="60" height="60" as="geometry" />
        </mxCell>
        <mxCell id="bG1zU9R9dDIdzRkVZDXt-33" value="PATH =&gt; http://titaniumprinting.com/categories" style="text;whiteSpace=wrap;overflow=hidden;rounded=0;fontFamily=Architects Daughter;fontSource=https%3A%2F%2Ffonts.googleapis.com%2Fcss%3Ffamily%3DArchitects%2BDaughter;fontColor=#5AA9E6;spacing=1;verticalAlign=middle;fontSize=10;" vertex="1" parent="bG1zU9R9dDIdzRkVZDXt-59">
          <mxGeometry x="100" y="10" width="280" height="40" as="geometry" />
        </mxCell>
        <mxCell id="bG1zU9R9dDIdzRkVZDXt-32" value="" style="strokeWidth=2;html=1;shape=mxgraph.flowchart.annotation_2;align=left;labelPosition=right;pointerEvents=1;sketch=1;hachureGap=4;jiggle=2;curveFitting=1;strokeColor=#FF6392;fontFamily=Architects Daughter;fontSource=https%3A%2F%2Ffonts.googleapis.com%2Fcss%3Ffamily%3DArchitects%2BDaughter;fontColor=#5AA9E6;fillColor=#FFE45E;" vertex="1" parent="bG1zU9R9dDIdzRkVZDXt-59">
          <mxGeometry x="60" y="10" width="50" height="40" as="geometry" />
        </mxCell>
        <mxCell id="bG1zU9R9dDIdzRkVZDXt-69" style="edgeStyle=orthogonalEdgeStyle;rounded=0;sketch=1;hachureGap=4;jiggle=2;curveFitting=1;orthogonalLoop=1;jettySize=auto;html=1;entryX=1;entryY=0.5;entryDx=0;entryDy=0;strokeColor=#FF6392;fontFamily=Architects Daughter;fontSource=https%3A%2F%2Ffonts.googleapis.com%2Fcss%3Ffamily%3DArchitects%2BDaughter;fontColor=#5AA9E6;fillColor=#FFE45E;" edge="1" parent="WIyWlLk6GJQsqaUBKTNV-1" source="bG1zU9R9dDIdzRkVZDXt-70" target="bG1zU9R9dDIdzRkVZDXt-76">
          <mxGeometry relative="1" as="geometry" />
        </mxCell>
        <mxCell id="bG1zU9R9dDIdzRkVZDXt-70" value="Products" style="shape=cylinder3;whiteSpace=wrap;html=1;boundedLbl=1;backgroundOutline=1;size=15;sketch=1;hachureGap=4;jiggle=2;curveFitting=1;strokeColor=#FF6392;fontFamily=Architects Daughter;fontSource=https%3A%2F%2Ffonts.googleapis.com%2Fcss%3Ffamily%3DArchitects%2BDaughter;fontColor=#5AA9E6;fillColor=#FFE45E;" vertex="1" parent="WIyWlLk6GJQsqaUBKTNV-1">
          <mxGeometry x="516" y="672.5" width="70" height="100" as="geometry" />
        </mxCell>
        <mxCell id="bG1zU9R9dDIdzRkVZDXt-71" value="" style="group" vertex="1" connectable="0" parent="WIyWlLk6GJQsqaUBKTNV-1">
          <mxGeometry x="616" y="706.25" width="210" height="40" as="geometry" />
        </mxCell>
        <mxCell id="bG1zU9R9dDIdzRkVZDXt-73" value="select id, name, slug, ...products&#xa;Where products.category_id = categories.id&#xa;AND slug = 1" style="text;whiteSpace=wrap;overflow=hidden;rounded=0;fontFamily=Architects Daughter;fontSource=https%3A%2F%2Ffonts.googleapis.com%2Fcss%3Ffamily%3DArchitects%2BDaughter;fontColor=#5AA9E6;spacing=1;verticalAlign=middle;fontSize=10;" vertex="1" parent="bG1zU9R9dDIdzRkVZDXt-71">
          <mxGeometry x="2" width="208" height="40" as="geometry" />
        </mxCell>
        <mxCell id="bG1zU9R9dDIdzRkVZDXt-81" style="edgeStyle=orthogonalEdgeStyle;rounded=0;sketch=1;hachureGap=4;jiggle=2;curveFitting=1;orthogonalLoop=1;jettySize=auto;html=1;entryX=0.5;entryY=0;entryDx=0;entryDy=0;strokeColor=#FF6392;fontFamily=Architects Daughter;fontSource=https%3A%2F%2Ffonts.googleapis.com%2Fcss%3Ffamily%3DArchitects%2BDaughter;fontColor=#5AA9E6;fillColor=#FFE45E;" edge="1" parent="WIyWlLk6GJQsqaUBKTNV-1" source="bG1zU9R9dDIdzRkVZDXt-27" target="bG1zU9R9dDIdzRkVZDXt-76">
          <mxGeometry relative="1" as="geometry" />
        </mxCell>
        <mxCell id="bG1zU9R9dDIdzRkVZDXt-72" value="" style="strokeWidth=2;html=1;shape=mxgraph.flowchart.annotation_2;align=left;labelPosition=right;pointerEvents=1;sketch=1;hachureGap=4;jiggle=2;curveFitting=1;strokeColor=#FF6392;fontFamily=Architects Daughter;fontSource=https%3A%2F%2Ffonts.googleapis.com%2Fcss%3Ffamily%3DArchitects%2BDaughter;fontColor=#5AA9E6;fillColor=#FFE45E;" vertex="1" parent="WIyWlLk6GJQsqaUBKTNV-1">
          <mxGeometry x="586" y="702.5" width="50" height="47.5" as="geometry" />
        </mxCell>
        <mxCell id="bG1zU9R9dDIdzRkVZDXt-82" value="" style="group" vertex="1" connectable="0" parent="WIyWlLk6GJQsqaUBKTNV-1">
          <mxGeometry x="196" y="840" width="400" height="60" as="geometry" />
        </mxCell>
        <mxCell id="bG1zU9R9dDIdzRkVZDXt-83" value="" style="ellipse;whiteSpace=wrap;html=1;aspect=fixed;sketch=1;hachureGap=4;jiggle=2;curveFitting=1;strokeColor=#FF6392;fontFamily=Architects Daughter;fontSource=https%3A%2F%2Ffonts.googleapis.com%2Fcss%3Ffamily%3DArchitects%2BDaughter;fontColor=#5AA9E6;fillColor=#FFE45E;" vertex="1" parent="bG1zU9R9dDIdzRkVZDXt-82">
          <mxGeometry width="60" height="60" as="geometry" />
        </mxCell>
        <mxCell id="bG1zU9R9dDIdzRkVZDXt-84" value="PATH =&gt; http://titaniumprinting.com/categories/slug-title-product" style="text;whiteSpace=wrap;overflow=hidden;rounded=0;fontFamily=Architects Daughter;fontSource=https%3A%2F%2Ffonts.googleapis.com%2Fcss%3Ffamily%3DArchitects%2BDaughter;fontColor=#5AA9E6;spacing=1;verticalAlign=middle;fontSize=10;" vertex="1" parent="bG1zU9R9dDIdzRkVZDXt-82">
          <mxGeometry x="100" y="10" width="300" height="40" as="geometry" />
        </mxCell>
        <mxCell id="bG1zU9R9dDIdzRkVZDXt-85" value="" style="strokeWidth=2;html=1;shape=mxgraph.flowchart.annotation_2;align=left;labelPosition=right;pointerEvents=1;sketch=1;hachureGap=4;jiggle=2;curveFitting=1;strokeColor=#FF6392;fontFamily=Architects Daughter;fontSource=https%3A%2F%2Ffonts.googleapis.com%2Fcss%3Ffamily%3DArchitects%2BDaughter;fontColor=#5AA9E6;fillColor=#FFE45E;" vertex="1" parent="bG1zU9R9dDIdzRkVZDXt-82">
          <mxGeometry x="60" y="10" width="50" height="40" as="geometry" />
        </mxCell>
        <mxCell id="bG1zU9R9dDIdzRkVZDXt-86" style="edgeStyle=orthogonalEdgeStyle;rounded=0;sketch=1;hachureGap=4;jiggle=2;curveFitting=1;orthogonalLoop=1;jettySize=auto;html=1;entryX=1;entryY=0.5;entryDx=0;entryDy=0;strokeColor=#FF6392;fontFamily=Architects Daughter;fontSource=https%3A%2F%2Ffonts.googleapis.com%2Fcss%3Ffamily%3DArchitects%2BDaughter;fontColor=#5AA9E6;fillColor=#FFE45E;" edge="1" parent="WIyWlLk6GJQsqaUBKTNV-1" source="bG1zU9R9dDIdzRkVZDXt-87" target="bG1zU9R9dDIdzRkVZDXt-99">
          <mxGeometry relative="1" as="geometry">
            <mxPoint x="450.0000000000002" y="1002.5" as="targetPoint" />
          </mxGeometry>
        </mxCell>
        <mxCell id="bG1zU9R9dDIdzRkVZDXt-87" value="Products" style="shape=cylinder3;whiteSpace=wrap;html=1;boundedLbl=1;backgroundOutline=1;size=15;sketch=1;hachureGap=4;jiggle=2;curveFitting=1;strokeColor=#FF6392;fontFamily=Architects Daughter;fontSource=https%3A%2F%2Ffonts.googleapis.com%2Fcss%3Ffamily%3DArchitects%2BDaughter;fontColor=#5AA9E6;fillColor=#FFE45E;" vertex="1" parent="WIyWlLk6GJQsqaUBKTNV-1">
          <mxGeometry x="516" y="900" width="70" height="100" as="geometry" />
        </mxCell>
        <mxCell id="bG1zU9R9dDIdzRkVZDXt-88" value="" style="group" vertex="1" connectable="0" parent="WIyWlLk6GJQsqaUBKTNV-1">
          <mxGeometry x="616" y="930" width="210" height="40" as="geometry" />
        </mxCell>
        <mxCell id="bG1zU9R9dDIdzRkVZDXt-89" value="select id, name, slug, ...products&#xa;Where products.category_id = categories.id&#xa;AND slug = 1" style="text;whiteSpace=wrap;overflow=hidden;rounded=0;fontFamily=Architects Daughter;fontSource=https%3A%2F%2Ffonts.googleapis.com%2Fcss%3Ffamily%3DArchitects%2BDaughter;fontColor=#5AA9E6;spacing=1;verticalAlign=middle;fontSize=10;" vertex="1" parent="bG1zU9R9dDIdzRkVZDXt-88">
          <mxGeometry x="2" width="208" height="40" as="geometry" />
        </mxCell>
        <mxCell id="bG1zU9R9dDIdzRkVZDXt-97" style="edgeStyle=orthogonalEdgeStyle;rounded=0;sketch=1;hachureGap=4;jiggle=2;curveFitting=1;orthogonalLoop=1;jettySize=auto;html=1;entryX=0.5;entryY=0;entryDx=0;entryDy=0;strokeColor=#FF6392;fontFamily=Architects Daughter;fontSource=https%3A%2F%2Ffonts.googleapis.com%2Fcss%3Ffamily%3DArchitects%2BDaughter;fontColor=#5AA9E6;fillColor=#FFE45E;" edge="1" parent="WIyWlLk6GJQsqaUBKTNV-1" source="bG1zU9R9dDIdzRkVZDXt-83" target="bG1zU9R9dDIdzRkVZDXt-99">
          <mxGeometry relative="1" as="geometry">
            <mxPoint x="225.0000000000001" y="950" as="targetPoint" />
          </mxGeometry>
        </mxCell>
        <mxCell id="bG1zU9R9dDIdzRkVZDXt-98" value="" style="strokeWidth=2;html=1;shape=mxgraph.flowchart.annotation_2;align=left;labelPosition=right;pointerEvents=1;sketch=1;hachureGap=4;jiggle=2;curveFitting=1;strokeColor=#FF6392;fontFamily=Architects Daughter;fontSource=https%3A%2F%2Ffonts.googleapis.com%2Fcss%3Ffamily%3DArchitects%2BDaughter;fontColor=#5AA9E6;fillColor=#FFE45E;" vertex="1" parent="WIyWlLk6GJQsqaUBKTNV-1">
          <mxGeometry x="586" y="926.25" width="50" height="47.5" as="geometry" />
        </mxCell>
        <mxCell id="bG1zU9R9dDIdzRkVZDXt-141" style="edgeStyle=orthogonalEdgeStyle;rounded=0;sketch=1;hachureGap=4;jiggle=2;curveFitting=1;orthogonalLoop=1;jettySize=auto;html=1;exitX=0.5;exitY=1;exitDx=0;exitDy=0;entryX=0.5;entryY=0;entryDx=0;entryDy=0;strokeColor=#FF6392;fontFamily=Architects Daughter;fontSource=https%3A%2F%2Ffonts.googleapis.com%2Fcss%3Ffamily%3DArchitects%2BDaughter;fontColor=#5AA9E6;fillColor=#FFE45E;" edge="1" parent="WIyWlLk6GJQsqaUBKTNV-1" source="bG1zU9R9dDIdzRkVZDXt-99" target="bG1zU9R9dDIdzRkVZDXt-131">
          <mxGeometry relative="1" as="geometry" />
        </mxCell>
        <mxCell id="bG1zU9R9dDIdzRkVZDXt-154" style="edgeStyle=orthogonalEdgeStyle;rounded=0;sketch=1;hachureGap=4;jiggle=2;curveFitting=1;orthogonalLoop=1;jettySize=auto;html=1;entryX=0.5;entryY=0;entryDx=0;entryDy=0;strokeColor=#FF6392;fontFamily=Architects Daughter;fontSource=https%3A%2F%2Ffonts.googleapis.com%2Fcss%3Ffamily%3DArchitects%2BDaughter;fontColor=#5AA9E6;fillColor=#FFE45E;" edge="1" parent="WIyWlLk6GJQsqaUBKTNV-1" source="bG1zU9R9dDIdzRkVZDXt-99" target="bG1zU9R9dDIdzRkVZDXt-102">
          <mxGeometry relative="1" as="geometry" />
        </mxCell>
        <mxCell id="bG1zU9R9dDIdzRkVZDXt-155" style="edgeStyle=orthogonalEdgeStyle;rounded=0;sketch=1;hachureGap=4;jiggle=2;curveFitting=1;orthogonalLoop=1;jettySize=auto;html=1;exitX=1;exitY=0.75;exitDx=0;exitDy=0;entryX=0.5;entryY=0;entryDx=0;entryDy=0;strokeColor=#FF6392;fontFamily=Architects Daughter;fontSource=https%3A%2F%2Ffonts.googleapis.com%2Fcss%3Ffamily%3DArchitects%2BDaughter;fontColor=#5AA9E6;fillColor=#FFE45E;" edge="1" parent="WIyWlLk6GJQsqaUBKTNV-1" source="bG1zU9R9dDIdzRkVZDXt-99" target="bG1zU9R9dDIdzRkVZDXt-150">
          <mxGeometry relative="1" as="geometry">
            <Array as="points">
              <mxPoint x="288" y="1040" />
              <mxPoint x="554" y="1040" />
            </Array>
          </mxGeometry>
        </mxCell>
        <mxCell id="bG1zU9R9dDIdzRkVZDXt-99" value="[GET] Product { }" style="rounded=1;whiteSpace=wrap;html=1;sketch=1;hachureGap=4;jiggle=2;curveFitting=1;strokeColor=#FF6392;fontFamily=Architects Daughter;fontSource=https%3A%2F%2Ffonts.googleapis.com%2Fcss%3Ffamily%3DArchitects%2BDaughter;fontColor=#5AA9E6;fillColor=#FFE45E;container=0;" vertex="1" parent="WIyWlLk6GJQsqaUBKTNV-1">
          <mxGeometry x="164.5" y="987.5" width="123" height="30" as="geometry" />
        </mxCell>
        <mxCell id="bG1zU9R9dDIdzRkVZDXt-41" value="" style="rounded=1;whiteSpace=wrap;html=1;sketch=1;hachureGap=4;jiggle=2;curveFitting=1;strokeColor=#FF6392;fontFamily=Architects Daughter;fontSource=https%3A%2F%2Ffonts.googleapis.com%2Fcss%3Ffamily%3DArchitects%2BDaughter;fontColor=#5AA9E6;fillColor=none;container=0;" vertex="1" parent="WIyWlLk6GJQsqaUBKTNV-1">
          <mxGeometry y="270" width="450" height="105" as="geometry" />
        </mxCell>
        <mxCell id="bG1zU9R9dDIdzRkVZDXt-39" value="name_category" style="rounded=1;whiteSpace=wrap;html=1;sketch=1;hachureGap=4;jiggle=2;curveFitting=1;strokeColor=#FF6392;fontFamily=Architects Daughter;fontSource=https%3A%2F%2Ffonts.googleapis.com%2Fcss%3Ffamily%3DArchitects%2BDaughter;fontColor=#5AA9E6;fillColor=#FFE45E;container=0;" vertex="1" parent="WIyWlLk6GJQsqaUBKTNV-1">
          <mxGeometry x="15" y="330" width="130" height="30" as="geometry" />
        </mxCell>
        <mxCell id="bG1zU9R9dDIdzRkVZDXt-11" value="name_category" style="rounded=1;whiteSpace=wrap;html=1;sketch=1;hachureGap=4;jiggle=2;curveFitting=1;strokeColor=#FF6392;fontFamily=Architects Daughter;fontSource=https%3A%2F%2Ffonts.googleapis.com%2Fcss%3Ffamily%3DArchitects%2BDaughter;fontColor=#5AA9E6;fillColor=#FFE45E;container=0;" vertex="1" parent="WIyWlLk6GJQsqaUBKTNV-1">
          <mxGeometry x="160" y="330" width="130" height="30" as="geometry" />
        </mxCell>
        <mxCell id="bG1zU9R9dDIdzRkVZDXt-38" value="name_category" style="rounded=1;whiteSpace=wrap;html=1;sketch=1;hachureGap=4;jiggle=2;curveFitting=1;strokeColor=#FF6392;fontFamily=Architects Daughter;fontSource=https%3A%2F%2Ffonts.googleapis.com%2Fcss%3Ffamily%3DArchitects%2BDaughter;fontColor=#5AA9E6;fillColor=#FFE45E;container=0;" vertex="1" parent="WIyWlLk6GJQsqaUBKTNV-1">
          <mxGeometry x="305" y="330" width="130" height="30" as="geometry" />
        </mxCell>
        <mxCell id="bG1zU9R9dDIdzRkVZDXt-110" style="edgeStyle=orthogonalEdgeStyle;rounded=0;sketch=1;hachureGap=4;jiggle=2;curveFitting=1;orthogonalLoop=1;jettySize=auto;html=1;entryX=0.5;entryY=0;entryDx=0;entryDy=0;strokeColor=#FF6392;fontFamily=Architects Daughter;fontSource=https%3A%2F%2Ffonts.googleapis.com%2Fcss%3Ffamily%3DArchitects%2BDaughter;fontColor=#5AA9E6;fillColor=#FFE45E;exitX=0;exitY=0.5;exitDx=0;exitDy=0;" edge="1" parent="WIyWlLk6GJQsqaUBKTNV-1" source="bG1zU9R9dDIdzRkVZDXt-46" target="bG1zU9R9dDIdzRkVZDXt-39">
          <mxGeometry relative="1" as="geometry" />
        </mxCell>
        <mxCell id="bG1zU9R9dDIdzRkVZDXt-111" style="edgeStyle=orthogonalEdgeStyle;rounded=0;sketch=1;hachureGap=4;jiggle=2;curveFitting=1;orthogonalLoop=1;jettySize=auto;html=1;entryX=0.5;entryY=0;entryDx=0;entryDy=0;strokeColor=#FF6392;fontFamily=Architects Daughter;fontSource=https%3A%2F%2Ffonts.googleapis.com%2Fcss%3Ffamily%3DArchitects%2BDaughter;fontColor=#5AA9E6;fillColor=#FFE45E;" edge="1" parent="WIyWlLk6GJQsqaUBKTNV-1" source="bG1zU9R9dDIdzRkVZDXt-46" target="bG1zU9R9dDIdzRkVZDXt-11">
          <mxGeometry relative="1" as="geometry" />
        </mxCell>
        <mxCell id="bG1zU9R9dDIdzRkVZDXt-112" style="edgeStyle=orthogonalEdgeStyle;rounded=0;sketch=1;hachureGap=4;jiggle=2;curveFitting=1;orthogonalLoop=1;jettySize=auto;html=1;exitX=1;exitY=0.5;exitDx=0;exitDy=0;entryX=0.5;entryY=0;entryDx=0;entryDy=0;strokeColor=#FF6392;fontFamily=Architects Daughter;fontSource=https%3A%2F%2Ffonts.googleapis.com%2Fcss%3Ffamily%3DArchitects%2BDaughter;fontColor=#5AA9E6;fillColor=#FFE45E;" edge="1" parent="WIyWlLk6GJQsqaUBKTNV-1" source="bG1zU9R9dDIdzRkVZDXt-46" target="bG1zU9R9dDIdzRkVZDXt-38">
          <mxGeometry relative="1" as="geometry" />
        </mxCell>
        <mxCell id="bG1zU9R9dDIdzRkVZDXt-46" value="[GET] Categories&lt;span style=&quot;background-color: initial;&quot;&gt;&amp;nbsp;[]&lt;/span&gt;" style="rounded=1;whiteSpace=wrap;html=1;sketch=1;hachureGap=4;jiggle=2;curveFitting=1;strokeColor=#FF6392;fontFamily=Architects Daughter;fontSource=https%3A%2F%2Ffonts.googleapis.com%2Fcss%3Ffamily%3DArchitects%2BDaughter;fontColor=#5AA9E6;fillColor=#FFE45E;container=0;" vertex="1" parent="WIyWlLk6GJQsqaUBKTNV-1">
          <mxGeometry x="128" y="280" width="194" height="30" as="geometry" />
        </mxCell>
        <mxCell id="bG1zU9R9dDIdzRkVZDXt-75" value="" style="group" vertex="1" connectable="0" parent="WIyWlLk6GJQsqaUBKTNV-1">
          <mxGeometry y="670" width="450" height="105" as="geometry" />
        </mxCell>
        <mxCell id="bG1zU9R9dDIdzRkVZDXt-76" value="" style="rounded=1;whiteSpace=wrap;html=1;sketch=1;hachureGap=4;jiggle=2;curveFitting=1;strokeColor=#FF6392;fontFamily=Architects Daughter;fontSource=https%3A%2F%2Ffonts.googleapis.com%2Fcss%3Ffamily%3DArchitects%2BDaughter;fontColor=#5AA9E6;fillColor=none;container=0;" vertex="1" parent="bG1zU9R9dDIdzRkVZDXt-75">
          <mxGeometry width="450" height="105" as="geometry" />
        </mxCell>
        <mxCell id="bG1zU9R9dDIdzRkVZDXt-77" value="name_product" style="rounded=1;whiteSpace=wrap;html=1;sketch=1;hachureGap=4;jiggle=2;curveFitting=1;strokeColor=#FF6392;fontFamily=Architects Daughter;fontSource=https%3A%2F%2Ffonts.googleapis.com%2Fcss%3Ffamily%3DArchitects%2BDaughter;fontColor=#5AA9E6;fillColor=#FFE45E;container=0;" vertex="1" parent="bG1zU9R9dDIdzRkVZDXt-75">
          <mxGeometry x="15" y="60" width="130" height="30" as="geometry" />
        </mxCell>
        <mxCell id="bG1zU9R9dDIdzRkVZDXt-78" value="name_product" style="rounded=1;whiteSpace=wrap;html=1;sketch=1;hachureGap=4;jiggle=2;curveFitting=1;strokeColor=#FF6392;fontFamily=Architects Daughter;fontSource=https%3A%2F%2Ffonts.googleapis.com%2Fcss%3Ffamily%3DArchitects%2BDaughter;fontColor=#5AA9E6;fillColor=#FFE45E;container=0;" vertex="1" parent="bG1zU9R9dDIdzRkVZDXt-75">
          <mxGeometry x="160" y="60" width="130" height="30" as="geometry" />
        </mxCell>
        <mxCell id="bG1zU9R9dDIdzRkVZDXt-79" value="name_product" style="rounded=1;whiteSpace=wrap;html=1;sketch=1;hachureGap=4;jiggle=2;curveFitting=1;strokeColor=#FF6392;fontFamily=Architects Daughter;fontSource=https%3A%2F%2Ffonts.googleapis.com%2Fcss%3Ffamily%3DArchitects%2BDaughter;fontColor=#5AA9E6;fillColor=#FFE45E;container=0;" vertex="1" parent="bG1zU9R9dDIdzRkVZDXt-75">
          <mxGeometry x="305" y="60" width="130" height="30" as="geometry" />
        </mxCell>
        <mxCell id="bG1zU9R9dDIdzRkVZDXt-117" style="edgeStyle=orthogonalEdgeStyle;rounded=0;sketch=1;hachureGap=4;jiggle=2;curveFitting=1;orthogonalLoop=1;jettySize=auto;html=1;exitX=0;exitY=0.5;exitDx=0;exitDy=0;entryX=0.5;entryY=0;entryDx=0;entryDy=0;strokeColor=#FF6392;fontFamily=Architects Daughter;fontSource=https%3A%2F%2Ffonts.googleapis.com%2Fcss%3Ffamily%3DArchitects%2BDaughter;fontColor=#5AA9E6;fillColor=#FFE45E;" edge="1" parent="bG1zU9R9dDIdzRkVZDXt-75" source="bG1zU9R9dDIdzRkVZDXt-80" target="bG1zU9R9dDIdzRkVZDXt-77">
          <mxGeometry relative="1" as="geometry" />
        </mxCell>
        <mxCell id="bG1zU9R9dDIdzRkVZDXt-118" style="edgeStyle=orthogonalEdgeStyle;rounded=0;sketch=1;hachureGap=4;jiggle=2;curveFitting=1;orthogonalLoop=1;jettySize=auto;html=1;exitX=0.5;exitY=1;exitDx=0;exitDy=0;entryX=0.5;entryY=0;entryDx=0;entryDy=0;strokeColor=#FF6392;fontFamily=Architects Daughter;fontSource=https%3A%2F%2Ffonts.googleapis.com%2Fcss%3Ffamily%3DArchitects%2BDaughter;fontColor=#5AA9E6;fillColor=#FFE45E;" edge="1" parent="bG1zU9R9dDIdzRkVZDXt-75" source="bG1zU9R9dDIdzRkVZDXt-80" target="bG1zU9R9dDIdzRkVZDXt-78">
          <mxGeometry relative="1" as="geometry" />
        </mxCell>
        <mxCell id="bG1zU9R9dDIdzRkVZDXt-119" style="edgeStyle=orthogonalEdgeStyle;rounded=0;sketch=1;hachureGap=4;jiggle=2;curveFitting=1;orthogonalLoop=1;jettySize=auto;html=1;exitX=1;exitY=0.5;exitDx=0;exitDy=0;entryX=0.5;entryY=0;entryDx=0;entryDy=0;strokeColor=#FF6392;fontFamily=Architects Daughter;fontSource=https%3A%2F%2Ffonts.googleapis.com%2Fcss%3Ffamily%3DArchitects%2BDaughter;fontColor=#5AA9E6;fillColor=#FFE45E;" edge="1" parent="bG1zU9R9dDIdzRkVZDXt-75" source="bG1zU9R9dDIdzRkVZDXt-80" target="bG1zU9R9dDIdzRkVZDXt-79">
          <mxGeometry relative="1" as="geometry" />
        </mxCell>
        <mxCell id="bG1zU9R9dDIdzRkVZDXt-80" value="[GET] Products&lt;span style=&quot;background-color: initial;&quot;&gt;&amp;nbsp;[]&lt;/span&gt;" style="rounded=1;whiteSpace=wrap;html=1;sketch=1;hachureGap=4;jiggle=2;curveFitting=1;strokeColor=#FF6392;fontFamily=Architects Daughter;fontSource=https%3A%2F%2Ffonts.googleapis.com%2Fcss%3Ffamily%3DArchitects%2BDaughter;fontColor=#5AA9E6;fillColor=#FFE45E;container=0;" vertex="1" parent="bG1zU9R9dDIdzRkVZDXt-75">
          <mxGeometry x="128" y="10" width="194" height="30" as="geometry" />
        </mxCell>
        <mxCell id="bG1zU9R9dDIdzRkVZDXt-139" value="" style="group" vertex="1" connectable="0" parent="WIyWlLk6GJQsqaUBKTNV-1">
          <mxGeometry x="79" y="1080" width="288" height="174" as="geometry" />
        </mxCell>
        <mxCell id="bG1zU9R9dDIdzRkVZDXt-129" style="edgeStyle=orthogonalEdgeStyle;rounded=0;sketch=1;hachureGap=4;jiggle=2;curveFitting=1;orthogonalLoop=1;jettySize=auto;html=1;exitX=0.5;exitY=1;exitDx=0;exitDy=0;entryX=0.5;entryY=0;entryDx=0;entryDy=0;strokeColor=#FF6392;fontFamily=Architects Daughter;fontSource=https%3A%2F%2Ffonts.googleapis.com%2Fcss%3Ffamily%3DArchitects%2BDaughter;fontColor=#5AA9E6;fillColor=#FFE45E;" edge="1" parent="bG1zU9R9dDIdzRkVZDXt-139" source="bG1zU9R9dDIdzRkVZDXt-131" target="bG1zU9R9dDIdzRkVZDXt-133">
          <mxGeometry relative="1" as="geometry" />
        </mxCell>
        <mxCell id="bG1zU9R9dDIdzRkVZDXt-130" style="edgeStyle=orthogonalEdgeStyle;rounded=0;sketch=1;hachureGap=4;jiggle=2;curveFitting=1;orthogonalLoop=1;jettySize=auto;html=1;entryX=0.5;entryY=0;entryDx=0;entryDy=0;strokeColor=#FF6392;fontFamily=Architects Daughter;fontSource=https%3A%2F%2Ffonts.googleapis.com%2Fcss%3Ffamily%3DArchitects%2BDaughter;fontColor=#5AA9E6;fillColor=#FFE45E;" edge="1" parent="bG1zU9R9dDIdzRkVZDXt-139" source="bG1zU9R9dDIdzRkVZDXt-131" target="bG1zU9R9dDIdzRkVZDXt-135">
          <mxGeometry relative="1" as="geometry" />
        </mxCell>
        <mxCell id="bG1zU9R9dDIdzRkVZDXt-131" value="[GET] Materials []" style="rounded=1;whiteSpace=wrap;html=1;sketch=1;hachureGap=4;jiggle=2;curveFitting=1;strokeColor=#FF6392;fontFamily=Architects Daughter;fontSource=https%3A%2F%2Ffonts.googleapis.com%2Fcss%3Ffamily%3DArchitects%2BDaughter;fontColor=#5AA9E6;fillColor=#FFE45E;container=0;" vertex="1" parent="bG1zU9R9dDIdzRkVZDXt-139">
          <mxGeometry x="85" width="123" height="30" as="geometry" />
        </mxCell>
        <mxCell id="bG1zU9R9dDIdzRkVZDXt-132" style="edgeStyle=orthogonalEdgeStyle;rounded=0;sketch=1;hachureGap=4;jiggle=2;curveFitting=1;orthogonalLoop=1;jettySize=auto;html=1;entryX=0.5;entryY=0;entryDx=0;entryDy=0;strokeColor=#FF6392;fontFamily=Architects Daughter;fontSource=https%3A%2F%2Ffonts.googleapis.com%2Fcss%3Ffamily%3DArchitects%2BDaughter;fontColor=#5AA9E6;fillColor=#FFE45E;" edge="1" parent="bG1zU9R9dDIdzRkVZDXt-139" source="bG1zU9R9dDIdzRkVZDXt-133" target="bG1zU9R9dDIdzRkVZDXt-136">
          <mxGeometry relative="1" as="geometry" />
        </mxCell>
        <mxCell id="bG1zU9R9dDIdzRkVZDXt-133" value="[GET] Quality []" style="rounded=1;whiteSpace=wrap;html=1;sketch=1;hachureGap=4;jiggle=2;curveFitting=1;strokeColor=#FF6392;fontFamily=Architects Daughter;fontSource=https%3A%2F%2Ffonts.googleapis.com%2Fcss%3Ffamily%3DArchitects%2BDaughter;fontColor=#5AA9E6;fillColor=#FFE45E;container=0;" vertex="1" parent="bG1zU9R9dDIdzRkVZDXt-139">
          <mxGeometry y="78" width="123" height="30" as="geometry" />
        </mxCell>
        <mxCell id="bG1zU9R9dDIdzRkVZDXt-134" style="edgeStyle=orthogonalEdgeStyle;rounded=0;sketch=1;hachureGap=4;jiggle=2;curveFitting=1;orthogonalLoop=1;jettySize=auto;html=1;exitX=0.5;exitY=1;exitDx=0;exitDy=0;entryX=0.5;entryY=0;entryDx=0;entryDy=0;strokeColor=#FF6392;fontFamily=Architects Daughter;fontSource=https%3A%2F%2Ffonts.googleapis.com%2Fcss%3Ffamily%3DArchitects%2BDaughter;fontColor=#5AA9E6;fillColor=#FFE45E;" edge="1" parent="bG1zU9R9dDIdzRkVZDXt-139" source="bG1zU9R9dDIdzRkVZDXt-135" target="bG1zU9R9dDIdzRkVZDXt-137">
          <mxGeometry relative="1" as="geometry" />
        </mxCell>
        <mxCell id="bG1zU9R9dDIdzRkVZDXt-135" value="[GET] Quality []" style="rounded=1;whiteSpace=wrap;html=1;sketch=1;hachureGap=4;jiggle=2;curveFitting=1;strokeColor=#FF6392;fontFamily=Architects Daughter;fontSource=https%3A%2F%2Ffonts.googleapis.com%2Fcss%3Ffamily%3DArchitects%2BDaughter;fontColor=#5AA9E6;fillColor=#FFE45E;container=0;" vertex="1" parent="bG1zU9R9dDIdzRkVZDXt-139">
          <mxGeometry x="165" y="78" width="123" height="30" as="geometry" />
        </mxCell>
        <mxCell id="bG1zU9R9dDIdzRkVZDXt-136" value="[GET] Size []" style="rounded=1;whiteSpace=wrap;html=1;sketch=1;hachureGap=4;jiggle=2;curveFitting=1;strokeColor=#FF6392;fontFamily=Architects Daughter;fontSource=https%3A%2F%2Ffonts.googleapis.com%2Fcss%3Ffamily%3DArchitects%2BDaughter;fontColor=#5AA9E6;fillColor=#FFE45E;container=0;" vertex="1" parent="bG1zU9R9dDIdzRkVZDXt-139">
          <mxGeometry y="144" width="123" height="30" as="geometry" />
        </mxCell>
        <mxCell id="bG1zU9R9dDIdzRkVZDXt-137" value="[GET] Size []" style="rounded=1;whiteSpace=wrap;html=1;sketch=1;hachureGap=4;jiggle=2;curveFitting=1;strokeColor=#FF6392;fontFamily=Architects Daughter;fontSource=https%3A%2F%2Ffonts.googleapis.com%2Fcss%3Ffamily%3DArchitects%2BDaughter;fontColor=#5AA9E6;fillColor=#FFE45E;container=0;" vertex="1" parent="bG1zU9R9dDIdzRkVZDXt-139">
          <mxGeometry x="165" y="144" width="123" height="30" as="geometry" />
        </mxCell>
        <mxCell id="bG1zU9R9dDIdzRkVZDXt-143" value="" style="group" vertex="1" connectable="0" parent="WIyWlLk6GJQsqaUBKTNV-1">
          <mxGeometry x="-250" y="1080" width="288" height="174" as="geometry" />
        </mxCell>
        <mxCell id="bG1zU9R9dDIdzRkVZDXt-121" value="[GET] Quality []" style="rounded=1;whiteSpace=wrap;html=1;sketch=1;hachureGap=4;jiggle=2;curveFitting=1;strokeColor=#FF6392;fontFamily=Architects Daughter;fontSource=https%3A%2F%2Ffonts.googleapis.com%2Fcss%3Ffamily%3DArchitects%2BDaughter;fontColor=#5AA9E6;fillColor=#FFE45E;container=0;" vertex="1" parent="bG1zU9R9dDIdzRkVZDXt-143">
          <mxGeometry x="165" y="78" width="123" height="30" as="geometry" />
        </mxCell>
        <mxCell id="bG1zU9R9dDIdzRkVZDXt-125" value="[GET] Size []" style="rounded=1;whiteSpace=wrap;html=1;sketch=1;hachureGap=4;jiggle=2;curveFitting=1;strokeColor=#FF6392;fontFamily=Architects Daughter;fontSource=https%3A%2F%2Ffonts.googleapis.com%2Fcss%3Ffamily%3DArchitects%2BDaughter;fontColor=#5AA9E6;fillColor=#FFE45E;container=0;" vertex="1" parent="bG1zU9R9dDIdzRkVZDXt-143">
          <mxGeometry x="165" y="144" width="123" height="30" as="geometry" />
        </mxCell>
        <mxCell id="bG1zU9R9dDIdzRkVZDXt-123" style="edgeStyle=orthogonalEdgeStyle;rounded=0;sketch=1;hachureGap=4;jiggle=2;curveFitting=1;orthogonalLoop=1;jettySize=auto;html=1;entryX=0.5;entryY=0;entryDx=0;entryDy=0;strokeColor=#FF6392;fontFamily=Architects Daughter;fontSource=https%3A%2F%2Ffonts.googleapis.com%2Fcss%3Ffamily%3DArchitects%2BDaughter;fontColor=#5AA9E6;fillColor=#FFE45E;" edge="1" parent="bG1zU9R9dDIdzRkVZDXt-143" source="bG1zU9R9dDIdzRkVZDXt-102" target="bG1zU9R9dDIdzRkVZDXt-121">
          <mxGeometry relative="1" as="geometry" />
        </mxCell>
        <mxCell id="bG1zU9R9dDIdzRkVZDXt-127" style="edgeStyle=orthogonalEdgeStyle;rounded=0;sketch=1;hachureGap=4;jiggle=2;curveFitting=1;orthogonalLoop=1;jettySize=auto;html=1;exitX=0.5;exitY=1;exitDx=0;exitDy=0;entryX=0.5;entryY=0;entryDx=0;entryDy=0;strokeColor=#FF6392;fontFamily=Architects Daughter;fontSource=https%3A%2F%2Ffonts.googleapis.com%2Fcss%3Ffamily%3DArchitects%2BDaughter;fontColor=#5AA9E6;fillColor=#FFE45E;" edge="1" parent="bG1zU9R9dDIdzRkVZDXt-143" source="bG1zU9R9dDIdzRkVZDXt-121" target="bG1zU9R9dDIdzRkVZDXt-125">
          <mxGeometry relative="1" as="geometry" />
        </mxCell>
        <mxCell id="bG1zU9R9dDIdzRkVZDXt-122" style="edgeStyle=orthogonalEdgeStyle;rounded=0;sketch=1;hachureGap=4;jiggle=2;curveFitting=1;orthogonalLoop=1;jettySize=auto;html=1;exitX=0.5;exitY=1;exitDx=0;exitDy=0;entryX=0.5;entryY=0;entryDx=0;entryDy=0;strokeColor=#FF6392;fontFamily=Architects Daughter;fontSource=https%3A%2F%2Ffonts.googleapis.com%2Fcss%3Ffamily%3DArchitects%2BDaughter;fontColor=#5AA9E6;fillColor=#FFE45E;" edge="1" parent="bG1zU9R9dDIdzRkVZDXt-143" source="bG1zU9R9dDIdzRkVZDXt-102" target="bG1zU9R9dDIdzRkVZDXt-120">
          <mxGeometry relative="1" as="geometry" />
        </mxCell>
        <mxCell id="bG1zU9R9dDIdzRkVZDXt-102" value="[GET] Materials []" style="rounded=1;whiteSpace=wrap;html=1;sketch=1;hachureGap=4;jiggle=2;curveFitting=1;strokeColor=#FF6392;fontFamily=Architects Daughter;fontSource=https%3A%2F%2Ffonts.googleapis.com%2Fcss%3Ffamily%3DArchitects%2BDaughter;fontColor=#5AA9E6;fillColor=#FFE45E;container=0;" vertex="1" parent="bG1zU9R9dDIdzRkVZDXt-143">
          <mxGeometry x="85" width="123" height="30" as="geometry" />
        </mxCell>
        <mxCell id="bG1zU9R9dDIdzRkVZDXt-126" style="edgeStyle=orthogonalEdgeStyle;rounded=0;sketch=1;hachureGap=4;jiggle=2;curveFitting=1;orthogonalLoop=1;jettySize=auto;html=1;entryX=0.5;entryY=0;entryDx=0;entryDy=0;strokeColor=#FF6392;fontFamily=Architects Daughter;fontSource=https%3A%2F%2Ffonts.googleapis.com%2Fcss%3Ffamily%3DArchitects%2BDaughter;fontColor=#5AA9E6;fillColor=#FFE45E;" edge="1" parent="bG1zU9R9dDIdzRkVZDXt-143" source="bG1zU9R9dDIdzRkVZDXt-120" target="bG1zU9R9dDIdzRkVZDXt-124">
          <mxGeometry relative="1" as="geometry" />
        </mxCell>
        <mxCell id="bG1zU9R9dDIdzRkVZDXt-120" value="[GET] Quality []" style="rounded=1;whiteSpace=wrap;html=1;sketch=1;hachureGap=4;jiggle=2;curveFitting=1;strokeColor=#FF6392;fontFamily=Architects Daughter;fontSource=https%3A%2F%2Ffonts.googleapis.com%2Fcss%3Ffamily%3DArchitects%2BDaughter;fontColor=#5AA9E6;fillColor=#FFE45E;container=0;" vertex="1" parent="bG1zU9R9dDIdzRkVZDXt-143">
          <mxGeometry y="78" width="123" height="30" as="geometry" />
        </mxCell>
        <mxCell id="bG1zU9R9dDIdzRkVZDXt-124" value="[GET] Size []" style="rounded=1;whiteSpace=wrap;html=1;sketch=1;hachureGap=4;jiggle=2;curveFitting=1;strokeColor=#FF6392;fontFamily=Architects Daughter;fontSource=https%3A%2F%2Ffonts.googleapis.com%2Fcss%3Ffamily%3DArchitects%2BDaughter;fontColor=#5AA9E6;fillColor=#FFE45E;container=0;" vertex="1" parent="bG1zU9R9dDIdzRkVZDXt-143">
          <mxGeometry y="144" width="123" height="30" as="geometry" />
        </mxCell>
        <mxCell id="bG1zU9R9dDIdzRkVZDXt-144" value="" style="group" vertex="1" connectable="0" parent="WIyWlLk6GJQsqaUBKTNV-1">
          <mxGeometry x="407" y="1080" width="288" height="174" as="geometry" />
        </mxCell>
        <mxCell id="bG1zU9R9dDIdzRkVZDXt-145" value="[GET] Quality []" style="rounded=1;whiteSpace=wrap;html=1;sketch=1;hachureGap=4;jiggle=2;curveFitting=1;strokeColor=#FF6392;fontFamily=Architects Daughter;fontSource=https%3A%2F%2Ffonts.googleapis.com%2Fcss%3Ffamily%3DArchitects%2BDaughter;fontColor=#5AA9E6;fillColor=#FFE45E;container=0;" vertex="1" parent="bG1zU9R9dDIdzRkVZDXt-144">
          <mxGeometry x="165" y="78" width="123" height="30" as="geometry" />
        </mxCell>
        <mxCell id="bG1zU9R9dDIdzRkVZDXt-146" value="[GET] Size []" style="rounded=1;whiteSpace=wrap;html=1;sketch=1;hachureGap=4;jiggle=2;curveFitting=1;strokeColor=#FF6392;fontFamily=Architects Daughter;fontSource=https%3A%2F%2Ffonts.googleapis.com%2Fcss%3Ffamily%3DArchitects%2BDaughter;fontColor=#5AA9E6;fillColor=#FFE45E;container=0;" vertex="1" parent="bG1zU9R9dDIdzRkVZDXt-144">
          <mxGeometry x="165" y="144" width="123" height="30" as="geometry" />
        </mxCell>
        <mxCell id="bG1zU9R9dDIdzRkVZDXt-147" style="edgeStyle=orthogonalEdgeStyle;rounded=0;sketch=1;hachureGap=4;jiggle=2;curveFitting=1;orthogonalLoop=1;jettySize=auto;html=1;entryX=0.5;entryY=0;entryDx=0;entryDy=0;strokeColor=#FF6392;fontFamily=Architects Daughter;fontSource=https%3A%2F%2Ffonts.googleapis.com%2Fcss%3Ffamily%3DArchitects%2BDaughter;fontColor=#5AA9E6;fillColor=#FFE45E;" edge="1" parent="bG1zU9R9dDIdzRkVZDXt-144" source="bG1zU9R9dDIdzRkVZDXt-150" target="bG1zU9R9dDIdzRkVZDXt-145">
          <mxGeometry relative="1" as="geometry" />
        </mxCell>
        <mxCell id="bG1zU9R9dDIdzRkVZDXt-148" style="edgeStyle=orthogonalEdgeStyle;rounded=0;sketch=1;hachureGap=4;jiggle=2;curveFitting=1;orthogonalLoop=1;jettySize=auto;html=1;exitX=0.5;exitY=1;exitDx=0;exitDy=0;entryX=0.5;entryY=0;entryDx=0;entryDy=0;strokeColor=#FF6392;fontFamily=Architects Daughter;fontSource=https%3A%2F%2Ffonts.googleapis.com%2Fcss%3Ffamily%3DArchitects%2BDaughter;fontColor=#5AA9E6;fillColor=#FFE45E;" edge="1" parent="bG1zU9R9dDIdzRkVZDXt-144" source="bG1zU9R9dDIdzRkVZDXt-145" target="bG1zU9R9dDIdzRkVZDXt-146">
          <mxGeometry relative="1" as="geometry" />
        </mxCell>
        <mxCell id="bG1zU9R9dDIdzRkVZDXt-149" style="edgeStyle=orthogonalEdgeStyle;rounded=0;sketch=1;hachureGap=4;jiggle=2;curveFitting=1;orthogonalLoop=1;jettySize=auto;html=1;exitX=0.5;exitY=1;exitDx=0;exitDy=0;entryX=0.5;entryY=0;entryDx=0;entryDy=0;strokeColor=#FF6392;fontFamily=Architects Daughter;fontSource=https%3A%2F%2Ffonts.googleapis.com%2Fcss%3Ffamily%3DArchitects%2BDaughter;fontColor=#5AA9E6;fillColor=#FFE45E;" edge="1" parent="bG1zU9R9dDIdzRkVZDXt-144" source="bG1zU9R9dDIdzRkVZDXt-150" target="bG1zU9R9dDIdzRkVZDXt-152">
          <mxGeometry relative="1" as="geometry" />
        </mxCell>
        <mxCell id="bG1zU9R9dDIdzRkVZDXt-150" value="[GET] Materials []" style="rounded=1;whiteSpace=wrap;html=1;sketch=1;hachureGap=4;jiggle=2;curveFitting=1;strokeColor=#FF6392;fontFamily=Architects Daughter;fontSource=https%3A%2F%2Ffonts.googleapis.com%2Fcss%3Ffamily%3DArchitects%2BDaughter;fontColor=#5AA9E6;fillColor=#FFE45E;container=0;" vertex="1" parent="bG1zU9R9dDIdzRkVZDXt-144">
          <mxGeometry x="85" width="123" height="30" as="geometry" />
        </mxCell>
        <mxCell id="bG1zU9R9dDIdzRkVZDXt-151" style="edgeStyle=orthogonalEdgeStyle;rounded=0;sketch=1;hachureGap=4;jiggle=2;curveFitting=1;orthogonalLoop=1;jettySize=auto;html=1;entryX=0.5;entryY=0;entryDx=0;entryDy=0;strokeColor=#FF6392;fontFamily=Architects Daughter;fontSource=https%3A%2F%2Ffonts.googleapis.com%2Fcss%3Ffamily%3DArchitects%2BDaughter;fontColor=#5AA9E6;fillColor=#FFE45E;" edge="1" parent="bG1zU9R9dDIdzRkVZDXt-144" source="bG1zU9R9dDIdzRkVZDXt-152" target="bG1zU9R9dDIdzRkVZDXt-153">
          <mxGeometry relative="1" as="geometry" />
        </mxCell>
        <mxCell id="bG1zU9R9dDIdzRkVZDXt-152" value="[GET] Quality []" style="rounded=1;whiteSpace=wrap;html=1;sketch=1;hachureGap=4;jiggle=2;curveFitting=1;strokeColor=#FF6392;fontFamily=Architects Daughter;fontSource=https%3A%2F%2Ffonts.googleapis.com%2Fcss%3Ffamily%3DArchitects%2BDaughter;fontColor=#5AA9E6;fillColor=#FFE45E;container=0;" vertex="1" parent="bG1zU9R9dDIdzRkVZDXt-144">
          <mxGeometry y="78" width="123" height="30" as="geometry" />
        </mxCell>
        <mxCell id="bG1zU9R9dDIdzRkVZDXt-153" value="[GET] Size []" style="rounded=1;whiteSpace=wrap;html=1;sketch=1;hachureGap=4;jiggle=2;curveFitting=1;strokeColor=#FF6392;fontFamily=Architects Daughter;fontSource=https%3A%2F%2Ffonts.googleapis.com%2Fcss%3Ffamily%3DArchitects%2BDaughter;fontColor=#5AA9E6;fillColor=#FFE45E;container=0;" vertex="1" parent="bG1zU9R9dDIdzRkVZDXt-144">
          <mxGeometry y="144" width="123" height="30" as="geometry" />
        </mxCell>
      </root>
    </mxGraphModel>
  </diagram>
</mxfile>
